# xmcd
#
# Track frame offsets:
#	150
#	15288
#	31341
#	45085
#	63922
#	78580
#	102308
#	115557
#	132847
#	143000
#	164078
#	188366
#
# Disc length: 2710 seconds
#
# Revision: 1
# Processed by: cddbd v1.4PL0 Copyright (c) Steve Scherf et al.
# Submitted via: audiograbber 1.81.03
#
DISCID=880a940c
DTITLE=Montana Rose - There´s A Dream...
DYEAR=1999
DGENRE=Country
TTITLE0=Somethin´ ´Bout You
TTITLE1=There´s A Dream
TTITLE2=Dirty Little Town
TTITLE3=Between Husbands And Wives
TTITLE4=I´m Not Ready
TTITLE5=Come On And Break My Heatr Again
TTITLE6=The Want To
TTITLE7=The Rain Came Down
TTITLE8=I Love You Honey (And I Don´t Mean Maybe)
TTITLE9=Don´t Touch Me
TTITLE10=Old California
TTITLE11=Waltz Across The Big Sky
EXTD=
EXTT0=
EXTT1=
EXTT2=
EXTT3=
EXTT4=
EXTT5=
EXTT6=
EXTT7=
EXTT8=
EXTT9=
EXTT10=
EXTT11=
PLAYORDER=
